<svg xmlns="http://www.w3.org/2000/svg" width="52" height="48" viewBox="0 0 52 48">
    <g fill="none">
        <g fill="#151625">
            <path d="M46.09 40.503L30.957 29.71v-4.853c.002-3.815-1.774-7.413-4.805-9.731-3.03-2.318-6.968-3.091-10.65-2.091l-8.596 2.343 5.08-7.318C16.65 1.329 25.145-1.589 32.959.854c7.814 2.444 13.134 9.682 13.132 17.869v21.78zm-8.652-14.13l2.174 1.552v-9.191c.006-3.816-1.77-7.417-4.802-9.734-3.032-2.318-6.972-3.088-10.653-2.08 7.893 2.399 13.29 9.676 13.295 17.925l-.014 1.529z" transform="translate(5 7)"/>
            <path d="M6.478 40.336H0v-15.48c.01-8.44 5.658-15.834 13.799-18.064l8.59-2.335-5.08 7.31c-1.422 2.044-2.182 4.476-2.176 6.967v15.48H8.654v-15.48c0-.278 0-.578.02-.865-1.429 2.05-2.195 4.489-2.196 6.987v15.48z" transform="translate(5 7)"/>
        </g>
        <g fill="#FFF">
            <path d="M46.09 40.503L30.957 29.71v-4.853c.002-3.815-1.774-7.413-4.805-9.731-3.03-2.318-6.968-3.091-10.65-2.091l-8.596 2.343 5.08-7.318C16.65 1.329 25.145-1.589 32.959.854c7.814 2.444 13.134 9.682 13.132 17.869v21.78zm-8.652-14.13l2.174 1.552v-9.191c.006-3.816-1.77-7.417-4.802-9.734-3.032-2.318-6.972-3.088-10.653-2.08 7.893 2.399 13.29 9.676 13.295 17.925l-.014 1.529z"/>
            <path d="M6.478 40.336H0v-15.48c.01-8.44 5.658-15.834 13.799-18.064l8.59-2.335-5.08 7.31c-1.422 2.044-2.182 4.476-2.176 6.967v15.48H8.654v-15.48c0-.278 0-.578.02-.865-1.429 2.05-2.195 4.489-2.196 6.987v15.48z"/>
        </g>
    </g>
</svg>
