<svg xmlns="http://www.w3.org/2000/svg" width="18" height="18" viewBox="0 0 18 18">
    <g fill="#FFF" opacity=".8">
        <path d="M2.637 18h12.726C16.817 18 18 16.817 18 15.363V2.637C18 1.183 16.817 0 15.363 0H2.637C1.183 0 0 1.183 0 2.637v12.726C0 16.817 1.183 18 2.637 18zM1.055 2.637c0-.873.71-1.582 1.582-1.582h12.726c.873 0 1.582.71 1.582 1.582v12.726c0 .873-.71 1.582-1.582 1.582H2.637c-.873 0-1.582-.71-1.582-1.582V2.637z"/>
        <path d="M9 13.746c2.617 0 4.746-2.13 4.746-4.746 0-2.617-2.13-4.746-4.746-4.746-2.617 0-4.746 2.13-4.746 4.746 0 2.617 2.13 4.746 4.746 4.746zM9 5.31c2.035 0 3.691 1.656 3.691 3.691S11.035 12.691 9 12.691 5.309 11.035 5.309 9 6.965 5.309 9 5.309zM14.273 5.309c.873 0 1.582-.71 1.582-1.582 0-.873-.71-1.582-1.582-1.582-.872 0-1.582.71-1.582 1.582 0 .872.71 1.582 1.582 1.582zm0-2.11c.291 0 .528.237.528.528 0 .29-.237.527-.528.527-.29 0-.527-.237-.527-.527 0-.291.237-.528.527-.528z"/>
    </g>
</svg>
