<svg xmlns="http://www.w3.org/2000/svg" width="18" height="18" viewBox="0 0 18 18">
    <path fill="#FFF" d="M2.63 17.96H8.49v-6.385H6.384V9.471h2.105V6.84c0-1.45 1.18-2.63 2.63-2.63h2.631v2.104h-2.105c-.58 0-1.052.472-1.052 1.052v2.105h3.062l-.35 2.104h-2.712v6.384h4.735c1.451 0 2.631-1.18 2.631-2.63V2.63C17.96 1.18 16.78 0 15.33 0H2.63C1.18 0 0 1.18 0 2.63v12.698c0 1.451 1.18 2.631 2.63 2.631zM1.053 2.63c0-.87.708-1.578 1.579-1.578h12.697c.87 0 1.579.708 1.579 1.579v12.697c0 .87-.708 1.579-1.579 1.579h-3.683v-4.28h2.55l.702-4.209h-3.252V7.366h3.157v-4.21H11.12c-2.03 0-3.683 1.653-3.683 3.684v1.578H5.332v4.21h2.104v4.279H2.631c-.87 0-1.579-.708-1.579-1.579V2.631z" opacity=".8"/>
</svg>
