<svg xmlns="http://www.w3.org/2000/svg" width="19" height="16" viewBox="0 0 19 16">
    <path fill="#FFF" d="M19 2.077c-1.195.055-1.17.05-1.304.062l.708-2.022s-2.21.813-2.77.958c-1.471-1.322-3.658-1.38-5.22-.42-1.28.788-1.968 2.14-1.739 3.719-2.491-.346-4.59-1.527-6.248-3.518l-.524-.63-.392.72c-.495.909-.659 1.948-.463 2.926.081.401.218.784.408 1.142l-.45-.174-.053.751c-.054.764.2 1.654.68 2.383.135.206.309.431.53.653l-.233-.035.283.86c.373 1.132 1.147 2.007 2.152 2.493-1.004.426-1.814.698-3.146 1.136L0 13.48l1.126.616c.429.235 1.946 1.019 3.444 1.254 3.331.522 7.082.097 9.607-2.177 2.126-1.916 2.824-4.64 2.68-7.475-.023-.43.095-.84.33-1.154.472-.63 1.81-2.464 1.813-2.468zm-2.703 1.802c-.39.522-.587 1.188-.551 1.876.146 2.86-.632 5.078-2.313 6.592-1.964 1.769-5.132 2.463-8.69 1.905-.645-.101-1.311-.328-1.862-.554 1.117-.384 1.98-.726 3.372-1.386l1.945-.92-2.147-.137c-1.029-.066-1.885-.565-2.411-1.374.28-.016.549-.061.817-.136l2.048-.57-2.065-.506c-1.003-.246-1.575-.846-1.878-1.306-.2-.303-.33-.613-.407-.898.207.055.448.095.837.133l1.911.19L3.39 5.605c-1.09-.85-1.528-2.13-1.208-3.358 3.405 3.531 7.403 3.266 7.805 3.36-.088-.861-.09-.863-.114-.945-.515-1.822.614-2.747 1.124-3.06 1.064-.654 2.753-.752 3.922.325.253.233.595.324.915.245.287-.072.522-.147.753-.23l-.48 1.372h.612l-.42.564z" opacity=".8"/>
</svg>
